<?xml version="1.0" standalone="no"?>
<!DOCTYPE svg PUBLIC "-//W3C//DTD SVG 20010904//EN"
 "http://www.w3.org/TR/2001/REC-SVG-20010904/DTD/svg10.dtd">
<svg version="1.0" xmlns="http://www.w3.org/2000/svg"
 width="453.000000pt" height="453.000000pt" viewBox="0 0 453.000000 453.000000"
 preserveAspectRatio="xMidYMid meet">
<metadata>
Created by potrace 1.11, written by Peter Selinger 2001-2013
</metadata>
<g transform="translate(0.000000,453.000000) scale(0.100000,-0.100000)"
fill="#000000" stroke="none">
<path d="M884 3241 c-141 -40 -255 -128 -308 -236 -14 -27 -27 -61 -30 -75 -2
-14 -9 -37 -15 -53 -6 -15 -13 -38 -15 -50 -3 -12 -30 -107 -61 -212 -31 -104
-58 -197 -60 -205 -2 -8 -8 -27 -14 -42 -6 -16 -9 -28 -7 -28 2 0 -5 -28 -16
-62 -22 -72 -148 -505 -153 -528 -2 -8 -8 -26 -13 -40 -5 -14 -10 -27 -10 -30
0 -3 -6 -25 -13 -50 -7 -25 -13 -47 -14 -50 0 -3 -8 -30 -18 -60 -35 -114 -46
-160 -39 -163 4 -1 776 -2 1717 -1 l1710 1 73 25 c92 33 160 77 218 141 59 65
91 139 120 274 2 12 9 35 15 50 6 16 12 36 14 45 6 31 56 212 62 228 3 8 8 24
10 35 2 11 16 65 32 120 45 158 101 361 106 381 2 11 11 44 20 74 17 57 44
154 51 180 5 21 20 74 39 145 10 33 18 65 19 70 1 6 5 16 9 23 5 6 6 12 3 12
-3 0 1 19 9 41 8 23 15 45 15 50 0 5 -735 9 -1697 8 -1585 0 -1702 -2 -1759
-18z"/>
</g>
</svg>
